# xmcd
#
# Track frame offsets: 
#        150
#        11166
#        23113
#        33514
#        56971
#        77297
#        90896
#        105891
#        120256
#        137619
#        149600
#        160159
#        174218
#        194922
#
# Disc length: 2840 seconds
#
# Revision: 2
# Processed by: cddbd v1.5.2PL0 Copyright (c) Steve Scherf et al.
# Submitted via: ExactAudioCopy v1.0b3
#
DISCID=aa0b160e
DTITLE=Roomful Of Blues - That's Right
DYEAR=2003
DGENRE=Blues
TTITLE0=That's Right
TTITLE1=We Can't Make It
TTITLE2=Shame, Shame, Shame 
TTITLE3=How Long Will It Last 
TTITLE4=You're Driving Me Crazy 
TTITLE5=Ocean Of Tears 
TTITLE6=2 Point 9 
TTITLE7=I Know Your Wig Is Gone 
TTITLE8=I'll Keep On Trying 
TTITLE9=Lipstick, Powder And Paint 
TTITLE10=I'm Tryin' 
TTITLE11=Tennessee Woman 
TTITLE12=I Just Got To Know 
TTITLE13=Stranger Blues 
EXTD=Alligator Records 4889\n© 2003
EXTT0=
EXTT1=
EXTT2=
EXTT3=
EXTT4=
EXTT5=
EXTT6=
EXTT7=
EXTT8=
EXTT9=
EXTT10=
EXTT11=
EXTT12=
EXTT13=
PLAYORDER=
